HIERARCHY
ROOT SpineBase
{
  OFFSET 0.000000 0.000000 0.000000
  CHANNELS 6 Xposition Yposition Zposition Zrotation Xrotation Yrotation
  JOINT SpineMid
  {
    OFFSET 0.000000 29.359667 0.000000
    CHANNELS 3 Zrotation Xrotation Yrotation
    JOINT SpineShoulder
    {
      OFFSET -0.121547 21.827260 -0.660252
      CHANNELS 3 Zrotation Xrotation Yrotation
      JOINT Neck
      {
        OFFSET -0.034120 7.224924 -0.576572
        CHANNELS 3 Zrotation Xrotation Yrotation
        JOINT Head
        {
          OFFSET -4.834188 10.951959 4.455703
          CHANNELS 3 Zrotation Xrotation Yrotation
          End Site
          {
            OFFSET 0 0 0
          }
        }
      }
      JOINT ShoulderLeft
      {
        OFFSET -10.970019 -3.777341 9.119765
        CHANNELS 3 Zrotation Xrotation Yrotation
        JOINT ElbowLeft
        {
          OFFSET 16.345486 -19.405932 5.454899
          CHANNELS 3 Zrotation Xrotation Yrotation
          JOINT WristLeft
          {
            OFFSET -9.090131 -13.471774 -21.631737
            CHANNELS 3 Zrotation Xrotation Yrotation
            JOINT HandLeft
            {
              OFFSET 0.023420 -6.755362 -3.755370
              CHANNELS 3 Zrotation Xrotation Yrotation
              JOINT HandTipLeft
              {
                OFFSET -5.246336 -5.441391 -4.968376
                CHANNELS 3 Zrotation Xrotation Yrotation
                End Site
                {
                  OFFSET 0 0 0
                }
              }
              JOINT ThumbLeft
              {
                OFFSET 2.781567 -3.120406 -0.798424
                CHANNELS 3 Zrotation Xrotation Yrotation
                End Site
                {
                  OFFSET 0 0 0
                }
              }
            }
          }
        }
      }
      JOINT ShoulderRight
      {
        OFFSET 0.822076 -5.247026 -12.920190
        CHANNELS 3 Zrotation Xrotation Yrotation
        JOINT ElbowRight
        {
          OFFSET -6.037669 -21.558971 -5.434077
          CHANNELS 3 Zrotation Xrotation Yrotation
          JOINT WristRight
          {
            OFFSET -5.301490 -24.011196 2.924982
            CHANNELS 3 Zrotation Xrotation Yrotation
            JOINT HandRight
            {
              OFFSET -1.516099 -8.744247 1.877502
              CHANNELS 3 Zrotation Xrotation Yrotation
              JOINT HandTipRight
              {
                OFFSET -2.789743 -7.493212 0.271479
                CHANNELS 3 Zrotation Xrotation Yrotation
                End Site
                {
                  OFFSET 0 0 0
                }
              }
              JOINT ThumbRight
              {
                OFFSET 4.717983 -0.013416 1.047022
                CHANNELS 3 Zrotation Xrotation Yrotation
                End Site
                {
                  OFFSET 0 0 0
                }
              }
            }
          }
        }
      }
    }
  }
  JOINT HipLeft
  {
    OFFSET -2.849723 1.415517 0.368519
    CHANNELS 3 Zrotation Xrotation Yrotation
    JOINT KneeLeft
    {
      OFFSET 9.007212 -35.080228 12.379239
      CHANNELS 3 Zrotation Xrotation Yrotation
      JOINT AnkleLeft
      {
        OFFSET 2.858968 -37.953381 2.173473
        CHANNELS 3 Zrotation Xrotation Yrotation
        JOINT FootLeft
        {
          OFFSET -6.819787 -5.450244 -7.304359
          CHANNELS 3 Zrotation Xrotation Yrotation
          End Site
          {
            OFFSET 0 0 0
          }
        }
      }
    }
  }
  JOINT HipRight
  {
    OFFSET 3.299030 0.376864 -7.012945
    CHANNELS 3 Zrotation Xrotation Yrotation
    JOINT KneeRight
    {
      OFFSET -5.060702 -33.354076 0.819305
      CHANNELS 3 Zrotation Xrotation Yrotation
      JOINT AnkleRight
      {
        OFFSET 5.628094 -37.765560 4.697101
        CHANNELS 3 Zrotation Xrotation Yrotation
        JOINT FootRight
        {
          OFFSET 8.466491 0.047002 -11.862887
          CHANNELS 3 Zrotation Xrotation Yrotation
          End Site
          {
            OFFSET 0 0 0
          }
        }
      }
    }
  }
}
MOTION
Frames: 14
Frame Time: 0.033333
-28.140538 84.349448 356.976036 -0.000000 0.000000 50.205731 0.000000 0.000000 -50.205731 -0.000000 0.000000 0.000000 -0.000000 0.000000 0.000000 0.000000 0.000000 0.000000 -0.000000 0.000000 0.000000 -0.000000 0.000000 0.000000 -0.000000 0.000000 0.000000 -0.000000 0.000000 0.000000 0.000000 0.000000 0.000000 0.000000 0.000000 0.000000 -0.000000 0.000000 0.000000 -0.000000 0.000000 0.000000 -0.000000 0.000000 0.000000 -0.000000 0.000000 0.000000 0.000000 0.000000 0.000000 0.000000 0.000000 0.000000 0.000000 0.000000 -50.205731 -0.000000 0.000000 0.000000 -0.000000 0.000000 0.000000 0.000000 0.000000 0.000000 0.000000 0.000000 -50.205731 -0.000000 0.000000 0.000000 -0.000000 0.000000 0.000000 0.000000 0.000000 0.000000
-28.127891 84.340945 357.067840 0.071383 -0.095980 50.195452 0.028038 0.116282 -50.195420 -0.000000 0.000000 0.000000 -0.000000 0.000000 0.000000 0.000000 0.000000 0.000000 -0.000000 0.000000 0.000000 -0.000000 0.000000 0.000000 -0.000000 0.000000 0.000000 -2.505813 1.378377 0.958697 0.000000 0.000000 0.000000 0.000000 0.000000 0.000000 1.148026 -1.505615 0.148293 -1.144523 1.508280 -0.118141 1.566877 -1.542272 0.624629 0.186384 -1.177517 0.493206 0.000000 0.000000 0.000000 0.000000 0.000000 0.000000 0.028038 0.116282 -50.195420 -0.000000 0.000000 0.000000 -1.962086 2.853660 -0.846364 0.000000 0.000000 0.000000 0.028038 0.116282 -50.195420 0.286847 -0.771250 -0.077238 -7.939461 -9.046383 -4.793910 0.000000 0.000000 0.000000
-28.118850 84.323297 357.150469 0.142660 -0.178984 50.141814 0.045965 0.224220 -50.141681 -0.000000 0.000000 0.000000 0.297608 -0.715899 -0.435828 0.000000 0.000000 0.000000 -0.000000 0.000000 0.000000 0.484943 -0.259057 -0.606715 -0.487664 0.253898 0.608892 -4.535829 2.407487 1.813339 0.000000 0.000000 0.000000 0.000000 0.000000 0.000000 2.071617 -2.716974 0.291167 -2.275551 3.539709 -0.387438 3.269213 -3.767758 1.494862 0.318770 -2.160334 0.939818 0.000000 0.000000 0.000000 0.000000 0.000000 0.000000 0.045965 0.224220 -50.141681 0.457131 -1.042073 -0.048125 -4.082165 6.265655 -1.276845 0.000000 0.000000 0.000000 0.045965 0.224220 -50.141681 0.523065 -1.401482 -0.137113 -29.522380 -27.023654 -20.522995 0.000000 0.000000 0.000000
-28.113416 84.296506 357.223925 0.213781 -0.248963 50.043527 0.053546 0.323755 -50.043213 -0.000000 0.000000 0.000000 0.412124 -0.919058 -0.570996 0.000000 0.000000 0.000000 -0.000000 0.000000 0.000000 0.678003 -0.372954 -0.842579 -0.481581 -0.550695 0.738932 -6.334830 4.033508 2.761533 0.000000 0.000000 0.000000 0.000000 0.000000 0.000000 2.794541 -3.667921 0.418781 -3.067133 4.749629 -0.489880 4.677331 -5.267465 2.180959 0.443193 -2.995870 1.347744 0.000000 0.000000 0.000000 0.000000 0.000000 0.000000 0.053546 0.323755 -50.043213 0.663970 -1.470826 -0.064179 -5.722111 8.658273 -1.510802 0.000000 0.000000 0.000000 0.053546 0.323755 -50.043213 0.708318 -1.888261 -0.181118 -76.702409 -37.922339 -59.809559 0.000000 0.000000 0.000000
-28.111590 84.260570 357.288205 0.284695 -0.305884 49.899576 0.050594 0.414796 -49.898999 -0.000000 0.000000 0.000000 0.504163 -1.017067 -0.650664 0.000000 0.000000 0.000000 -0.000000 0.000000 0.000000 0.838325 -0.475802 -1.033562 -0.770271 -0.474277 1.003945 -7.401781 4.518660 3.334236 0.000000 0.000000 0.000000 0.000000 0.000000 0.000000 3.335222 -4.385321 0.524900 -3.657133 5.617472 -0.549379 5.851110 -6.451001 2.763735 0.610371 -3.738451 1.729328 0.000000 0.000000 0.000000 0.000000 0.000000 0.000000 0.050594 0.414796 -49.898999 0.853605 -1.832624 -0.075412 -7.173064 10.637011 -1.550727 0.000000 0.000000 0.000000 0.050594 0.414796 -49.898999 0.842314 -2.229737 -0.210436 -106.243117 -31.350437 -83.481950 0.000000 0.000000 0.000000
-28.113371 84.215491 357.343312 0.355351 -0.349736 49.709257 0.036971 0.497213 -49.708333 -0.000000 0.000000 0.000000 0.573792 -1.009237 -0.674797 0.000000 0.000000 0.000000 -0.000000 0.000000 0.000000 0.966049 -0.567233 -1.179749 -1.124089 -0.270528 1.277951 -7.993589 4.633134 3.712436 0.000000 0.000000 0.000000 0.000000 0.000000 0.000000 3.707578 -4.889740 0.605738 -4.060360 6.160864 -0.574198 6.730867 -7.281437 3.197721 0.870246 -4.442696 2.099217 0.000000 0.000000 0.000000 0.000000 0.000000 0.000000 0.036971 0.497213 -49.708333 1.024507 -2.125369 -0.082300 -8.473938 12.247170 -1.429323 0.000000 0.000000 0.000000 0.036971 0.497213 -49.708333 0.924800 -2.424558 -0.225917 -117.719168 -26.949669 -90.989688 0.000000 0.000000 0.000000
-28.124178 84.172894 357.384051 0.382489 -0.377881 49.437786 0.038349 0.536302 -49.436704 -0.000000 0.000000 0.000000 0.872814 -1.203696 -0.878048 0.000000 0.000000 0.000000 -0.000000 0.000000 0.000000 1.026315 -0.597070 -1.257856 -1.736892 -0.166653 1.666660 -8.146436 4.330298 4.219844 0.000000 0.000000 0.000000 0.000000 0.000000 0.000000 3.867102 -5.147296 0.654884 -4.266476 5.973647 -0.493958 7.161986 -7.073394 3.219673 1.821386 -5.872756 2.769240 0.000000 0.000000 0.000000 0.000000 0.000000 0.000000 0.038349 0.536302 -49.436704 1.340831 -2.473877 -0.080470 -10.508241 13.760882 -0.423043 0.000000 0.000000 0.000000 0.637850 1.125028 -49.574004 1.025107 -3.380881 -0.094483 -121.278382 -29.241019 -90.818565 0.000000 0.000000 0.000000
-28.139527 84.123821 357.415513 0.451678 -0.387361 49.116683 -0.002779 0.595022 -49.115142 -0.000000 0.000000 0.000000 0.861239 -1.050081 -0.806337 0.000000 0.000000 0.000000 -0.000000 0.000000 0.000000 1.081887 -0.790108 -1.217846 -2.487826 0.468825 2.023460 -7.524517 3.982604 3.795872 0.000000 0.000000 0.000000 0.000000 0.000000 0.000000 3.646364 -4.768351 0.579886 -3.610631 4.795439 -0.276780 6.756085 -6.974188 3.065699 2.742513 -6.137689 3.038997 0.000000 0.000000 0.000000 0.000000 0.000000 0.000000 -0.360064 -0.156008 -49.191270 1.129382 -1.831529 -0.018196 -10.784080 14.067071 -0.397850 0.000000 0.000000 0.000000 0.623403 1.225315 -49.261159 1.027097 -3.344648 -0.075635 -117.299279 -40.654021 -82.047572 0.000000 0.000000 0.000000
-28.148297 84.058337 357.445592 0.550541 -0.371077 48.684507 -0.084775 0.658485 -48.682237 -0.000000 0.000000 0.000000 0.709960 -0.763449 -0.621084 0.000000 0.000000 0.000000 -0.000000 0.000000 0.000000 1.184135 -0.997193 -1.244276 -2.590800 1.775769 2.057477 -6.007159 2.124375 3.001024 0.000000 0.000000 0.000000 0.000000 0.000000 0.000000 3.737621 -5.049823 0.650759 -3.694642 5.081315 -0.321890 6.496268 -7.148011 3.031927 2.155750 -6.760268 3.370941 0.000000 0.000000 0.000000 0.000000 0.000000 0.000000 -0.607646 -0.506654 -48.792394 0.868323 -1.200233 0.018773 -11.842390 14.373286 0.399258 0.000000 0.000000 0.000000 0.544227 1.374705 -48.839835 0.998834 -3.084114 -0.032441 -120.229109 -42.510216 -82.523813 0.000000 0.000000 0.000000
-28.158872 83.908894 357.454307 0.669731 -0.385703 48.243401 -0.158318 0.756463 -48.240101 -0.000000 0.000000 0.000000 -0.000000 0.000000 0.000000 0.000000 0.000000 0.000000 -0.000000 0.000000 0.000000 1.233487 -1.174376 -1.204131 -2.367789 2.677723 1.865232 -5.944185 0.878242 3.215322 0.000000 0.000000 0.000000 0.000000 0.000000 0.000000 3.677592 -5.105376 0.681231 -3.631327 5.138343 -0.354225 6.162823 -6.656402 2.829157 2.644810 -7.012827 3.447570 0.000000 0.000000 0.000000 0.000000 0.000000 0.000000 -0.744255 -0.783017 -48.347540 0.398274 -0.361457 0.034735 -12.520281 13.403982 1.796737 0.000000 0.000000 0.000000 0.424676 1.569275 -48.405386 0.931147 -2.526948 0.033643 -119.404570 -34.782305 -87.224942 0.000000 0.000000 0.000000
-28.178892 83.703293 357.424169 0.774840 -0.385244 47.756895 -0.235750 0.832590 -47.752577 -0.000000 0.000000 0.000000 -0.661307 1.780761 1.061380 0.000000 0.000000 0.000000 -0.000000 0.000000 0.000000 1.204101 -1.187298 -1.147047 -1.754842 3.222121 1.465674 -5.782925 -0.222474 3.336850 0.000000 0.000000 0.000000 0.000000 0.000000 0.000000 3.464056 -4.763783 0.617308 -3.424577 4.792210 -0.329833 6.120088 -5.670866 2.598754 1.807910 -6.455330 2.970802 0.000000 0.000000 0.000000 0.000000 0.000000 0.000000 -0.913106 -1.278917 -47.856754 -0.267010 0.670318 0.055155 -12.839713 13.126197 2.153825 0.000000 0.000000 0.000000 0.284369 1.729261 -47.921763 0.947039 -2.339034 0.054901 -122.348677 -36.594555 -87.507957 0.000000 0.000000 0.000000
-28.211925 83.448100 357.382245 1.007564 -0.216112 47.515888 -0.051947 0.219719 -47.490561 0.094219 0.436467 0.046299 -2.140071 3.094682 1.953816 0.000000 0.000000 0.000000 -0.904900 -0.329318 -0.076357 1.371097 -1.286711 -1.353307 -0.939193 4.316551 1.078854 -4.716504 -2.495500 3.216583 0.000000 0.000000 0.000000 0.000000 0.000000 0.000000 2.233390 -4.646097 0.485477 -3.110501 4.336297 -0.307694 6.394751 -4.850004 2.488050 -0.440724 -6.580629 2.718669 0.000000 0.000000 0.000000 0.000000 0.000000 0.000000 -1.202591 -1.893221 -47.565333 -1.111856 1.699576 0.041640 -11.512087 11.959692 1.512552 0.000000 0.000000 0.000000 -0.092357 1.830544 -47.674473 0.997181 -2.198951 0.060822 -120.490089 -35.490162 -87.425337 0.000000 0.000000 0.000000
-28.225933 83.213834 357.300449 1.282682 0.041083 46.967347 0.056553 0.242561 -46.934306 0.095272 0.516694 0.061163 -2.766548 3.983772 2.621635 0.000000 0.000000 0.000000 -1.240310 -0.762479 -0.110786 1.588914 -1.468266 -1.587790 0.287356 6.372503 0.402155 -3.329835 -6.741229 3.874373 0.000000 0.000000 0.000000 0.000000 0.000000 0.000000 1.479635 -4.436508 0.360259 -2.702165 3.686083 -0.260630 6.763713 -4.200226 2.436245 -0.789653 -6.473910 2.474099 0.000000 0.000000 0.000000 0.000000 0.000000 0.000000 -1.681142 -2.622478 -47.011928 -2.056209 2.975278 0.093113 -11.248175 7.630956 5.202801 0.000000 0.000000 0.000000 -0.541326 1.918196 -47.126358 1.023572 -1.975906 0.087711 -132.118970 -53.065898 -83.456665 0.000000 0.000000 0.000000
-28.269356 82.983918 357.287381 1.562490 0.386296 47.112827 0.104126 0.256782 -47.074876 0.069667 0.563994 0.072285 -3.538024 4.995820 3.436463 0.000000 0.000000 0.000000 -1.517146 -1.198034 -0.142491 1.813148 -1.627266 -1.849570 1.127261 7.572612 -0.032656 -1.340780 -9.818687 4.198423 0.000000 0.000000 0.000000 0.000000 0.000000 0.000000 0.790251 -4.129089 0.205343 -1.931233 3.925825 -0.378429 7.337799 -4.670431 2.858844 -2.449210 -5.949927 1.947607 0.000000 0.000000 0.000000 0.000000 0.000000 0.000000 -2.069907 -3.447314 -47.071674 -2.679923 3.477361 0.029100 -13.023791 2.096780 12.919030 0.000000 0.000000 0.000000 -1.065943 1.904216 -47.264921 1.054537 -1.669402 0.112170 -133.696073 -73.163148 -73.400123 0.000000 0.000000 0.000000
